<svg width="500" height="702" viewBox="0 0 500 702" fill="none" xmlns="http://www.w3.org/2000/svg">
<rect y="101" width="100" height="100" fill="#EBEBEB"/>
<rect x="100" width="100" height="100" fill="#EBEBEB"/>
<rect x="100" y="602" width="100" height="100" fill="#EBEBEB"/>
<rect x="100" y="201" width="100" height="100" fill="#E0E0E0"/>
<rect x="200" y="301" width="100" height="100" fill="#CCCCCC"/>
<rect x="100" y="402" width="100" height="100" fill="#EBEBEB"/>
<rect y="502" width="100" height="100" fill="#E0E0E0"/>
<rect x="200" y="502" width="100" height="100" fill="#CCCCCC"/>
<rect x="200" y="602" width="100" height="100" fill="#E0E0E0"/>
<rect x="300" y="602" width="100" height="100" fill="#EBEBEB"/>
<rect y="201" width="100" height="100" fill="#CCCCCC"/>
<rect x="400" y="101" width="100" height="100" fill="#EBEBEB"/>
<rect x="300" y="400" width="100" height="100" fill="#EBEBEB"/>
<rect x="300" y="300" width="100" height="100" fill="#EBEBEB"/>
<rect x="300" y="200" width="100" height="100" fill="#E0E0E0"/>
<rect x="300" width="100" height="100" fill="#EBEBEB"/>
<rect x="300" y="100" width="100" height="100" fill="#CCCCCC"/>
<rect x="200" width="100" height="100" fill="#CCCCCC"/>
<rect x="200" y="100" width="100" height="100" fill="#EBEBEB"/>
</svg>
