<svg width="460" height="646" viewBox="0 0 460 646" fill="none" xmlns="http://www.w3.org/2000/svg">
<rect y="92.943" width="92" height="92.0228" fill="#EBEBEB"/>
<rect x="92" width="92" height="92.0228" fill="#EBEBEB"/>
<rect x="92" y="553.977" width="92" height="92.0228" fill="#EBEBEB"/>
<rect x="92" y="184.966" width="92" height="92.0228" fill="#E0E0E0"/>
<rect x="184" y="276.989" width="92" height="92.0228" fill="#CCCCCC"/>
<rect x="92" y="369.932" width="92" height="92.0228" fill="#EBEBEB"/>
<rect y="461.954" width="92" height="92.0228" fill="#E0E0E0"/>
<rect x="184" y="461.954" width="92" height="92.0228" fill="#CCCCCC"/>
<rect x="184" y="553.977" width="92" height="92.0228" fill="#E0E0E0"/>
<rect x="276" y="553.977" width="92" height="92.0228" fill="#EBEBEB"/>
<rect y="184.966" width="92" height="92.0228" fill="#CCCCCC"/>
<rect x="368" y="92.943" width="92" height="92.0228" fill="#EBEBEB"/>
<rect x="276" y="368.091" width="92" height="92.0228" fill="#EBEBEB"/>
<rect x="276" y="276.068" width="92" height="92.0228" fill="#EBEBEB"/>
<rect x="276" y="184.046" width="92" height="92.0228" fill="#E0E0E0"/>
<rect x="276" width="92" height="92.0228" fill="#EBEBEB"/>
<rect x="276" y="92.0228" width="92" height="92.0228" fill="#CCCCCC"/>
<rect x="184" width="92" height="92.0228" fill="#CCCCCC"/>
<rect x="184" y="92.0228" width="92" height="92.0228" fill="#EBEBEB"/>
</svg>
