<svg width="413" height="609" viewBox="0 0 413 609" fill="none" xmlns="http://www.w3.org/2000/svg">
<g clip-path="url(#clip0_152_127)">
<path d="M360.3 608.19H167.18C138.54 608.19 115.24 584.89 115.24 556.25V51.94C115.24 23.3 138.54 0 167.18 0H360.3C388.94 0 412.24 23.3 412.24 51.94V556.25C412.24 584.89 388.94 608.19 360.3 608.19ZM167.18 2C139.64 2 117.24 24.4 117.24 51.94V556.25C117.24 583.79 139.64 606.19 167.18 606.19H360.3C387.84 606.19 410.24 583.79 410.24 556.25V51.94C410.24 24.4 387.84 2 360.3 2H167.18Z" fill="#DEDFE0"/>
<path d="M291.09 47.36H236.4C229.18 47.36 223.31 41.49 223.31 34.27C223.31 27.05 229.18 21.18 236.4 21.18H291.09C298.31 21.18 304.18 27.05 304.18 34.27C304.18 41.49 298.31 47.36 291.09 47.36Z" fill="#DADBDC"/>
<path d="M215.08 607.14C215.08 607.68 214.64 608.12 214.1 608.12H0.98C0.44 608.12 0 607.68 0 607.14C0 606.6 0.44 606.16 0.98 606.16H214.1C214.64 606.16 215.08 606.6 215.08 607.14Z" fill="#3F3D58"/>
<path d="M119.16 304.11L138.81 310.57V282.29H120.98L119.16 304.11Z" fill="#F6AAAE"/>
<path d="M136.37 290.12C147.184 290.12 155.95 281.354 155.95 270.54C155.95 259.726 147.184 250.96 136.37 250.96C125.556 250.96 116.79 259.726 116.79 270.54C116.79 281.354 125.556 290.12 136.37 290.12Z" fill="#F6AAAE"/>
<path d="M131.39 272.07L134.09 275.35L138.97 266.81C138.97 266.81 145.2 267.13 145.2 262.51C145.2 257.89 150.92 257.76 150.92 257.76C150.92 257.76 159.01 243.63 142.25 247.35C142.25 247.35 130.62 239.38 124.84 246.19C124.84 246.19 107.11 255.12 112.18 270.67L120.61 286.69L122.52 283.06C122.52 283.06 121.36 267.83 131.39 272.07Z" fill="#2F2E43"/>
<path d="M129.57 572.09H113.75V594.53H129.57V572.09Z" fill="#F6AAAE"/>
<path d="M127.83 607.39C125.12 607.64 111.59 608.7 110.91 605.6C110.29 602.75 111.2 599.77 111.33 599.37C112.63 586.43 113.11 586.28 113.4 586.19C113.86 586.06 115.21 586.69 117.39 588.1L117.53 588.19L117.56 588.35C117.6 588.55 118.57 593.3 123.15 592.58C126.29 592.08 127.31 591.39 127.64 591.05C127.37 590.93 127.04 590.72 126.81 590.35C126.47 589.82 126.41 589.14 126.63 588.33C127.22 586.18 128.99 583 129.06 582.87L129.26 582.51L147.24 594.64L158.34 597.81C159.18 598.05 159.85 598.65 160.19 599.45C160.66 600.57 160.37 601.87 159.47 602.68C157.45 604.49 153.45 607.6 149.24 607.98C148.12 608.08 146.64 608.12 144.98 608.12C138.03 608.12 127.9 607.4 127.82 607.39L127.83 607.39Z" fill="#2F2E43"/>
<path d="M80.2269 538.39L65.9231 555.681L78.1127 565.765L92.4165 548.474L80.2269 538.39Z" fill="#F6AAAE"/>
<path d="M68.59 574.58C66.35 573.04 55.24 565.24 56.69 562.42C58.03 559.83 60.63 558.12 60.99 557.89C70.24 548.75 70.71 548.94 70.99 549.06C71.43 549.25 72.06 550.6 72.85 553.07L72.9 553.22L72.82 553.36C72.72 553.54 70.44 557.82 74.43 560.18C77.17 561.8 78.4 561.91 78.86 561.86C78.73 561.6 78.61 561.22 78.66 560.79C78.73 560.17 79.12 559.6 79.82 559.12C81.65 557.84 85.03 556.52 85.18 556.46L85.56 556.31L91.68 577.12L98.21 586.64C98.7 587.36 98.84 588.25 98.59 589.09C98.24 590.25 97.19 591.07 95.97 591.12C93.26 591.23 88.2 591.07 84.71 588.68C83.79 588.05 82.62 587.14 81.34 586.08C75.99 581.65 68.64 574.64 68.58 574.58L68.59 574.58Z" fill="#2F2E43"/>
<path d="M155.74 399.02H101.48L113.54 578.38H131.63L155.75 399.02L155.74 399.02Z" fill="#2F2E43"/>
<path d="M144.69 408.9L155.74 399.02L150.21 497.66L88.41 556.44L73.01 543.71L109.01 496.99L144.69 408.9Z" fill="#2F2E43"/>
<path d="M144.69 293.51L117.89 289.16L109.57 303.71C98.99 322.21 94.68 343.63 97.27 364.78L101.48 399.03H155.74L144.69 293.52L144.69 293.51Z" fill="#DADBDC"/>
<path d="M122.93 431.31C124.04 436.84 121.97 441.89 118.32 442.59C114.66 443.28 110.8 439.36 109.69 433.82C109.22 431.61 109.3 429.33 109.93 427.16L105.53 403.65L117.03 401.86L120.14 425.23C121.56 427.02 122.52 429.1 122.93 431.32V431.31Z" fill="#F6AAAE"/>
<path d="M108.94 424.94L92.05 372.76V372.68L98.43 318.95C99.41 310.72 106.39 304.52 114.67 304.52C119.74 304.52 124.44 306.81 127.56 310.81C130.68 314.81 131.77 319.92 130.54 324.85L119.27 369.92L121.96 421.07L108.93 424.94L108.94 424.94Z" fill="#DADBDC"/>
<path d="M205.57 310.29C210.26 335.34 234.37 351.85 259.43 347.15C267.01 345.73 273.81 342.53 279.47 338.06L336.47 399.54C339.96 403.3 345.91 403.29 349.39 399.51C352.64 395.98 352.46 390.5 348.98 387.19L288.08 329.15C295.4 319.21 298.74 306.38 296.29 293.29C291.6 268.24 267.49 251.73 242.43 256.43C217.37 261.13 200.87 285.23 205.57 310.29ZM215.41 308.45C211.74 288.83 224.66 269.95 244.28 266.28C263.9 262.61 282.78 275.53 286.45 295.15C290.12 314.77 277.2 333.65 257.58 337.32C237.96 340.99 219.08 328.07 215.41 308.45Z" fill="#003B80"/>
</g>
<defs>
<clipPath id="clip0_152_127">
<rect width="412.24" height="608.19" fill="white"/>
</clipPath>
</defs>
</svg>
