<svg width="1160" height="651" viewBox="0 0 1160 651" fill="none" xmlns="http://www.w3.org/2000/svg">
<g clip-path="url(#clip0_166_99)">
<path d="M587.646 182.97C577.303 168.512 565.047 153.076 545.853 148.355C523.625 142.888 500.791 153.748 481.422 164.465C423.5 196.517 367.719 231.252 314.336 268.511L314.394 269.072C355.955 266.65 397.516 264.227 439.077 261.805C469.104 260.055 500.164 258.063 526.7 246.058C536.769 241.502 546.585 235.417 557.996 234.993C572.172 234.466 584.533 242.834 594.247 251.576C651.709 303.291 668.337 382.374 732.803 427.809C692.153 343.081 643.615 261.211 587.646 182.97Z" fill="#F2F2F2"/>
<path d="M940.854 621.601C934.5 614.82 931.903 613.232 925.635 606.388C874.599 550.601 826.629 492.929 781.726 433.373C751.225 392.925 722.238 351.7 694.762 309.699C681.682 289.731 668.96 269.606 656.596 249.325C647.003 233.599 637.623 217.779 628.458 201.865C625.837 197.32 623.29 192.754 620.756 188.177C614.784 177.415 608.923 166.6 602.631 155.984C595.46 143.884 586.732 131.199 573.564 123.069C567.572 119.218 560.406 116.888 552.905 116.351C542.186 115.766 532.296 119.506 522.998 123.592C454.975 153.57 391.292 191.155 333.691 233.923C275.943 276.787 224.326 325.212 179.891 378.213C178.532 379.853 175.317 378.286 176.689 376.635C182.092 370.178 187.602 363.79 193.219 357.472C263.063 278.964 348.702 211.452 446.222 158.021C462.629 149.035 479.344 140.471 496.368 132.327C504.948 128.221 513.565 124.167 522.331 120.363C530.923 116.633 540.047 113.279 549.864 113.153C583.27 112.715 600.566 144.688 612.447 166.203C616.181 172.974 619.96 179.724 623.784 186.453C638.237 212.001 653.246 237.315 668.811 262.396C678.418 277.882 688.234 293.277 698.261 308.581C729.466 356.239 762.633 402.932 797.761 448.66C844.297 509.233 890.461 562.742 943.475 619.386C944.934 620.953 942.326 623.19 940.854 621.601Z" fill="#E4E4E4"/>
<path d="M330.39 218.134C328.449 216.306 326.521 214.477 324.567 212.649C309.162 198.25 292.633 184.018 271.479 175.764C261.393 171.704 250.382 169.546 239.211 169.442C227.663 169.473 216.376 172.033 205.706 175.618C200.662 177.321 195.729 179.254 190.87 181.312C185.319 183.674 179.867 186.192 174.44 188.731C164.252 193.496 154.196 198.469 144.273 203.652C124.529 213.965 105.403 225.066 86.8947 236.953C77.3005 243.118 67.9042 249.485 58.706 256.054C50.1507 262.156 41.7684 268.422 33.5592 274.852C31.8037 276.22 29.1825 274.005 30.938 272.636C33.1016 270.933 35.2899 269.24 37.4783 267.569C43.6599 262.846 49.9406 258.213 56.3203 253.671C67.9538 245.375 79.8885 237.399 92.1244 229.743C111.152 217.831 130.834 206.728 151.171 196.432C161.334 191.291 171.637 186.366 182.08 181.657C185.233 180.236 188.423 178.846 191.649 177.53C198.971 174.408 206.578 171.791 214.398 169.703C225.474 166.675 237.193 165.702 248.755 166.851C259.919 168.223 270.675 171.368 280.455 176.119C301.225 185.931 317.334 201.103 333.011 215.909C334.594 217.413 331.985 219.639 330.39 218.134Z" fill="#E4E4E4"/>
<path d="M755.965 367.343L805.736 351.958L830.447 344.319C838.495 341.832 846.524 338.999 854.844 337.218C862.074 335.473 869.75 335.555 876.926 337.456C883.324 339.458 889.182 342.526 894.149 346.479C899.224 350.429 903.946 354.691 908.276 359.23C913.656 364.694 918.956 370.216 924.281 375.719C946.256 398.433 968.087 421.245 989.775 444.155C1011.46 467.065 1033 490.073 1054.4 513.177C1075.85 536.339 1097.15 559.597 1118.31 582.952C1120.9 585.813 1123.49 588.675 1126.07 591.539C1127.5 593.121 1130.73 591.562 1129.28 589.957C1107.97 566.367 1086.51 542.874 1064.9 519.477C1043.24 496.025 1021.43 472.672 999.469 449.418C977.509 426.165 955.401 403.012 933.145 379.961C927.6 374.218 922.047 368.482 916.484 362.751C911.791 357.918 907.151 353.032 902.004 348.533C892.557 340.275 880.753 332.977 866.624 332.779C858.317 332.663 850.277 334.891 842.559 337.25C834.238 339.794 825.937 342.386 817.628 344.955L767.509 360.448L754.979 364.321C752.756 365.008 753.716 368.039 755.965 367.343Z" fill="#E4E4E4"/>
<path d="M264.929 193.882C239.637 182.895 207.246 185.047 184.004 198.773C228.337 205.237 272.184 213.886 315.321 224.676C297.408 215.804 283.396 201.903 264.929 193.882Z" fill="#F2F2F2"/>
<path d="M183.756 198.735L178.887 202.08C180.534 200.909 182.246 199.812 184.005 198.773C183.922 198.761 183.839 198.747 183.756 198.735Z" fill="#F2F2F2"/>
<path d="M892.275 367.497C887.376 362.457 882.079 357.179 874.75 355.132L867.909 355.36C919.99 433.14 990.329 501.103 1074.61 555.078C1013.83 492.551 953.053 430.024 892.275 367.497Z" fill="#F2F2F2"/>
<path d="M466.828 325.918C469.994 335.64 477.127 344.102 486.965 349.807C490.768 351.995 495.268 354.095 496.569 357.825C497.253 360.203 496.832 362.712 495.391 364.834C493.952 366.93 492.202 368.861 490.183 370.581L489.999 371.164C480.561 366.437 471.582 360.458 466.368 352.299C461.154 344.141 460.426 333.448 466.828 325.918Z" fill="#F2F2F2"/>
<path d="M781.059 557.299C784.225 567.021 791.358 575.483 801.196 581.188C804.999 583.377 809.499 585.476 810.8 589.206C811.484 591.584 811.063 594.093 809.622 596.216C808.183 598.311 806.433 600.243 804.414 601.962L804.23 602.546C794.792 597.819 785.812 591.839 780.599 583.68C775.385 575.522 774.657 564.829 781.059 557.299Z" fill="#F2F2F2"/>
<path d="M153.946 541.342C157.112 551.064 164.245 559.526 174.082 565.231C177.886 567.419 182.385 569.519 183.687 573.249C184.371 575.627 183.949 578.136 182.508 580.258C181.07 582.354 179.32 584.285 177.301 586.005L177.117 586.588C167.678 581.861 158.699 575.882 153.486 567.723C148.272 559.565 147.544 548.872 153.946 541.342Z" fill="#F2F2F2"/>
<path d="M875.597 116.261C913.583 116.261 944.377 90.2348 944.377 58.1303C944.377 26.0258 913.583 0 875.597 0C837.611 0 806.817 26.0258 806.817 58.1303C806.817 90.2348 837.611 116.261 875.597 116.261Z" fill="#6C63FF"/>
<path d="M999.719 13.53C966.385 9.72194 928.329 24.9494 919.69 52.4243C917.512 47.5393 913.554 43.3657 908.386 40.5065C903.219 37.6473 897.109 36.2506 890.941 36.5181C884.772 36.7856 878.864 38.7035 874.07 41.9947C869.276 45.286 865.844 49.7801 864.27 54.8278L868.086 57.1378C939.519 70.1935 1013.46 69.911 1084.76 56.3099C1061.57 35.7148 1033.05 17.3379 999.719 13.53Z" fill="#F0F0F0"/>
<path d="M856.764 91.037C823.43 87.229 785.374 102.456 776.734 129.931C774.557 125.046 770.599 120.873 765.431 118.014C760.263 115.154 754.154 113.758 747.986 114.025C741.817 114.293 735.909 116.211 731.115 119.502C726.321 122.793 722.889 127.287 721.314 132.335L725.131 134.645C796.564 147.701 870.509 147.418 941.8 133.817C918.613 113.222 890.098 94.845 856.764 91.037Z" fill="#F0F0F0"/>
<path d="M1147.7 105.693C1147.56 105.693 1147.42 105.675 1147.29 105.639C790.706 10.3303 476.424 22.7936 275.565 50.0322C248.23 53.7377 220.823 58.0175 194.103 62.7537C187.281 63.9614 180.204 65.256 173.069 66.6039C164.547 68.2079 156.138 69.8598 148.076 71.5116C144.593 72.2084 141.179 72.9108 137.833 73.6187C132.764 74.6761 127.621 75.7781 122.108 76.9891C115.948 78.3315 109.689 79.7396 103.501 81.1743C103.478 81.1811 103.455 81.1866 103.432 81.191L103.432 81.1922C96.4429 82.805 89.4903 84.4647 82.7669 86.1221C79.128 87.0103 75.6142 87.8863 72.2485 88.7512C71.8725 88.8391 71.5393 88.9237 71.2015 89.0106L70.4785 89.1964C70.0597 89.3044 69.6461 89.4101 69.2326 89.5103L69.2062 89.517L69.2069 89.5182L68.1124 89.8054C66.8073 90.1393 65.5337 90.4654 64.2812 90.7905C31.1792 99.4147 12.9819 105.55 12.8021 105.61C12.6377 105.666 12.4619 105.694 12.2848 105.692C12.1077 105.69 11.9328 105.659 11.7699 105.6C11.6071 105.541 11.4596 105.456 11.3358 105.349C11.212 105.242 11.1144 105.115 11.0485 104.976C10.9826 104.837 10.9497 104.689 10.9517 104.539C10.9538 104.389 10.9907 104.242 11.0603 104.104C11.13 103.966 11.231 103.842 11.3577 103.737C11.4843 103.632 11.6341 103.55 11.7985 103.494C11.9796 103.434 30.2658 97.2676 63.4884 88.611C64.7455 88.2849 66.0223 87.9588 67.3315 87.6237L68.3482 87.3566C68.3831 87.3454 68.418 87.3365 68.4535 87.3276C68.8651 87.2286 69.276 87.1228 69.6935 87.016L70.4179 86.8301C70.7787 86.7377 71.1343 86.6464 71.4985 86.5618C74.8411 85.7025 78.3668 84.8243 82.0149 83.9327C88.741 82.2742 95.7001 80.6146 102.695 78.9995C102.717 78.9928 102.739 78.9883 102.761 78.9828C108.97 77.5435 115.253 76.1288 121.433 74.7819C126.954 73.5698 132.107 72.4656 137.184 71.4059C140.545 70.6991 143.966 69.9952 147.447 69.2944C155.519 67.6403 163.944 65.9862 172.481 64.3789C179.628 63.0299 186.717 61.732 193.55 60.5232C220.311 55.7792 247.762 51.4926 275.138 47.7816C476.285 20.504 791.017 8.02061 1148.11 103.466C1148.41 103.548 1148.68 103.72 1148.85 103.951C1149.02 104.183 1149.08 104.457 1149.03 104.726C1148.98 104.995 1148.82 105.241 1148.58 105.418C1148.33 105.595 1148.02 105.692 1147.7 105.693Z" fill="#CCCCCC"/>
<path d="M354.675 478.538C354.208 477.384 353.422 476.34 352.382 475.494C351.998 475.194 351.583 474.923 351.142 474.685C347.622 472.702 342.362 472.257 339.017 474.685C338.68 474.932 338.369 475.203 338.087 475.494C337.089 476.532 336.064 477.546 335.012 478.538C333.286 480.202 331.519 481.809 329.671 483.37C329.145 483.804 328.619 484.248 328.08 484.681C327.77 484.943 327.46 485.194 327.149 485.445C325.963 486.402 324.749 487.326 323.522 488.237C322.874 488.728 322.227 489.206 321.566 489.674C320.582 490.369 319.597 491.064 318.599 491.737C318.505 491.794 318.41 491.851 318.316 491.919C318.289 491.93 318.275 491.953 318.248 491.965C318.235 491.965 318.221 491.965 318.208 491.987C318.171 492 318.139 492.019 318.114 492.044C317.817 492.215 317.615 492.329 317.466 492.432C317.52 492.409 317.574 492.375 317.628 492.352C317.385 492.512 317.129 492.671 316.886 492.831C314.526 494.301 312.112 495.715 309.644 497.037C303.538 500.34 297.124 503.218 290.467 505.642C290.022 505.791 289.563 505.95 289.105 506.098C271.673 512.134 252.764 514.489 234.013 512.96C232.098 512.835 230.183 512.664 228.268 512.447C226.056 512.173 223.858 511.843 221.673 511.467C213.355 510.064 205.217 507.988 197.371 505.266C187.555 501.468 178.22 496.839 169.508 491.452C168.159 490.643 166.797 489.833 165.435 489.047C166.986 485.833 168.51 482.618 169.993 479.381C170.735 477.82 171.45 476.258 172.151 474.685C177.667 462.569 182.846 450.339 187.809 438.063C192.826 425.628 197.559 413.12 202.01 400.541C202.468 399.264 202.914 397.987 203.345 396.711C205.678 390.066 207.917 383.405 210.061 376.73C210.264 376.08 210.479 375.442 210.668 374.792C211.288 372.877 211.895 370.962 212.489 369.048C213.837 364.728 210.79 359.564 205.422 358.527C202.838 357.967 200.097 358.277 197.777 359.391C195.458 360.505 193.741 362.337 192.988 364.5C192.408 366.346 191.828 368.181 191.234 370.028C188.389 378.953 185.395 387.847 182.252 396.711C181.794 397.987 181.335 399.264 180.877 400.541C173.945 419.849 166.334 438.964 158.045 457.884C157.047 460.175 156.035 462.459 155.01 464.735C154.511 465.852 154.012 466.969 153.5 468.086C152.515 470.285 151.504 472.485 150.492 474.685C149.912 475.973 149.319 477.261 148.726 478.538C148.334 479.347 147.957 480.156 147.579 480.954C143.734 479.787 139.75 478.977 135.698 478.538L135.05 478.469C131.909 478.15 128.731 478.173 125.596 478.538C120.905 479 116.39 480.328 112.373 482.428C108.355 484.528 104.932 487.347 102.346 490.688C95.9131 499.248 95.994 511.49 105.016 518.762C114.308 526.25 128.375 526.193 139.312 521.509C145.108 518.858 149.995 514.987 153.5 510.27C154.842 508.56 156.076 506.791 157.195 504.97C157.478 505.129 157.761 505.289 158.045 505.46C159.123 506.098 160.202 506.748 161.268 507.386C167.476 511.187 174.017 514.582 180.836 517.542C195.499 523.703 211.282 527.737 227.526 529.476C227.89 529.51 228.241 529.556 228.605 529.59C230.399 529.784 232.206 529.932 234.013 530.057C259.937 531.708 285.892 527.225 308.97 517.109C310.925 516.254 312.863 515.357 314.782 514.419C317.763 512.96 320.676 511.41 323.522 509.768C325.073 508.879 326.583 507.979 328.08 507.033C334.622 502.961 340.719 498.402 346.3 493.412C348.417 491.532 350.445 489.59 352.382 487.588C354.215 485.95 355.271 483.8 355.349 481.547C355.339 480.518 355.11 479.499 354.675 478.538ZM131.355 505.688C131.638 505.517 131.922 505.335 132.191 505.152C132.11 505.323 131.719 505.517 131.355 505.688ZM135.684 502.006C135.374 502.303 135.091 502.599 134.781 502.895C133.837 503.788 132.823 504.626 131.746 505.403C131.598 505.517 131.436 505.631 131.274 505.734C131.272 505.733 131.271 505.734 131.269 505.734C131.267 505.735 131.266 505.736 131.265 505.737C131.263 505.738 131.262 505.739 131.262 505.741C131.261 505.742 131.261 505.743 131.261 505.745C131.066 505.818 130.877 505.902 130.694 505.996C130.114 506.292 129.521 506.566 128.914 506.816C127.726 507.186 126.503 507.472 125.259 507.671C124.303 507.73 123.344 507.738 122.387 507.694H122.36C121.699 507.57 121.047 507.418 120.404 507.238C120.081 507.101 119.77 506.942 119.46 506.782C119.339 506.691 119.231 506.6 119.164 506.543C119.032 506.441 118.91 506.331 118.799 506.212C118.8 506.211 118.799 506.209 118.798 506.208C118.798 506.206 118.797 506.205 118.796 506.204C118.794 506.203 118.793 506.202 118.791 506.202C118.79 506.201 118.788 506.201 118.786 506.201C118.638 505.973 118.476 505.745 118.327 505.517C118.32 505.511 118.315 505.503 118.314 505.494C118.206 505.209 118.112 504.913 118.031 504.617C118.001 504.096 118.006 503.575 118.044 503.055C118.225 502.327 118.469 501.611 118.772 500.912C119.046 500.417 119.356 499.937 119.703 499.476C119.73 499.43 119.865 499.248 120.013 499.043C120.027 499.031 120.027 499.032 120.027 499.02C120.229 498.826 120.431 498.621 120.647 498.439C121.011 498.097 121.402 497.8 121.793 497.493C122.554 497.072 123.342 496.688 124.154 496.342C125.441 495.955 126.762 495.654 128.105 495.441C130.085 495.308 132.075 495.323 134.052 495.487C135.925 495.761 137.773 496.146 139.582 496.638C138.485 498.436 137.237 500.166 135.846 501.813C135.792 501.881 135.738 501.949 135.684 502.006ZM120.687 498.256C120.569 498.418 120.428 498.567 120.269 498.701C120.376 498.533 120.518 498.382 120.687 498.256Z" fill="#3F3D56"/>
<path d="M314.135 362.129C314.014 365.708 313.892 369.287 313.771 372.866C313.515 380.81 313.249 388.759 312.975 396.711C312.692 405.658 312.395 414.602 312.085 423.542C311.937 428.158 311.784 432.774 311.627 437.391C311.209 449.826 310.795 462.257 310.386 474.685C310.345 475.973 310.292 477.25 310.251 478.538C310.049 484.704 309.846 490.87 309.644 497.037C309.415 503.727 309.19 510.418 308.97 517.109C308.808 522.124 308.642 527.143 308.471 532.166C307.257 568.56 306.043 604.954 304.83 641.348C304.778 643.602 303.696 645.751 301.81 647.345C299.924 648.939 297.381 649.853 294.715 649.897C292.039 649.878 289.479 648.972 287.586 647.373C285.694 645.773 284.622 643.61 284.6 641.348C285.274 620.877 285.958 600.406 286.65 579.935C287.257 561.425 287.873 542.914 288.498 524.404C288.7 518.306 288.902 512.204 289.105 506.098C289.415 496.911 289.72 487.725 290.022 478.538C290.062 477.25 290.116 475.973 290.156 474.685C290.183 473.557 290.224 472.44 290.264 471.311C290.858 453.473 291.451 435.631 292.045 417.786C292.287 410.765 292.521 403.74 292.746 396.711C293.016 388.698 293.285 380.689 293.555 372.684C293.676 369.162 293.784 365.651 293.906 362.129C293.957 359.875 295.039 357.726 296.925 356.132C298.811 354.538 301.354 353.624 304.02 353.58C306.696 353.599 309.256 354.505 311.149 356.104C313.041 357.704 314.114 359.867 314.135 362.129Z" fill="#3F3D56"/>
<path d="M869 364.501C858.393 398.444 845.717 431.901 831.021 464.737C826.965 473.795 822.817 482.834 818.382 491.764L819.402 489.722C817.422 493.976 814.894 498.032 811.864 501.818C811.657 502.062 811.447 502.304 811.234 502.543C812.282 501.411 812.481 501.187 811.831 501.872C811.489 502.215 811.15 502.558 810.796 502.892C809.852 503.786 808.839 504.624 807.763 505.404C807.492 505.6 807.217 505.791 806.938 505.979L808.203 505.148C808.056 505.44 807.025 505.829 806.705 505.994C805.666 506.524 804.582 506.988 803.461 507.383L805.878 506.521C804.042 507.146 802.127 507.59 800.171 507.844L802.86 507.539C800.939 507.763 798.991 507.781 797.064 507.591L799.753 507.897C798.176 507.713 796.633 507.362 795.161 506.852L797.577 507.713C796.792 507.424 796.035 507.083 795.313 506.692C794.947 506.49 793.822 505.77 795.293 506.72C796.821 507.707 795.489 506.805 795.175 506.542C794.913 506.324 794.676 506.086 794.42 505.864C793.23 504.833 795.764 507.638 794.955 506.432C794.523 505.828 794.128 505.205 793.771 504.567L794.79 506.609C794.326 505.637 793.997 504.623 793.808 503.587L794.17 505.859C793.977 504.571 793.975 503.267 794.166 501.979L793.804 504.251C794.052 502.813 794.502 501.404 795.146 500.056L794.126 502.099C794.575 501.192 795.106 500.316 795.715 499.479C795.995 499.046 796.324 498.637 796.697 498.257C796.764 498.276 794.986 499.982 795.93 499.12C796.176 498.895 796.407 498.658 796.656 498.434C797.056 498.077 797.484 497.749 797.905 497.411C799.314 496.277 795.933 498.512 797.559 497.615C798.737 496.96 799.977 496.389 801.267 495.906L798.85 496.768C801.01 496.018 803.274 495.505 805.587 495.241L802.898 495.546C805.795 495.264 808.723 495.294 811.611 495.633L808.922 495.328C812.58 495.796 816.155 496.646 819.565 497.858L817.149 496.996C824.418 499.634 830.855 503.549 837.282 507.389C843.488 511.188 850.028 514.581 856.845 517.541C871.508 523.702 887.292 527.738 903.538 529.479C926.836 531.891 950.478 529.319 972.294 522C994.111 514.681 1013.4 502.849 1028.4 487.589C1030.23 485.948 1031.29 483.797 1031.36 481.544C1031.34 479.28 1030.28 477.111 1028.4 475.499C1024.69 472.62 1017.68 471.807 1014.1 475.499C1010.7 479.004 1007.05 482.326 1003.16 485.446C1001.35 486.901 999.488 488.31 997.578 489.675C996.486 490.454 995.38 491.218 994.259 491.967C993.728 492.321 992.076 493.264 994.614 491.742C994.032 492.091 993.474 492.472 992.9 492.83C984.407 498.122 975.202 502.547 965.48 506.012L967.896 505.15C957.462 508.849 946.505 511.386 935.298 512.699L937.987 512.393C926.458 513.675 914.779 513.66 903.255 512.35L905.943 512.655C894.422 511.318 883.153 508.724 872.421 504.938L874.837 505.8C864.479 501.927 854.65 497.115 845.522 491.449C840.772 488.475 835.762 485.811 830.535 483.477C824.446 480.848 817.853 479.155 811.064 478.475C798.334 477.208 785.363 481.399 778.364 490.694C771.924 499.248 772.007 511.488 781.026 518.762C790.315 526.253 804.382 526.19 815.329 521.504C825.872 516.991 832.205 507.615 836.658 498.774C846.68 478.878 855.553 458.523 863.819 438.064C871.998 417.823 879.415 397.378 886.07 376.727C886.894 374.17 887.706 371.609 888.506 369.046C889.856 364.728 886.806 359.563 881.442 358.531C878.857 357.968 876.114 358.276 873.793 359.39C871.471 360.504 869.753 362.337 869 364.501Z" fill="#3F3D56"/>
<path d="M969.921 362.128L966.28 471.314L962.659 579.932L960.611 641.349C960.634 643.61 961.707 645.773 963.599 647.372C965.491 648.971 968.05 649.878 970.726 649.897C973.392 649.854 975.935 648.939 977.821 647.345C979.707 645.751 980.789 643.602 980.84 641.349L984.481 532.163L988.103 423.545L990.151 362.128C990.128 359.867 989.055 357.704 987.163 356.105C985.271 354.506 982.711 353.599 980.036 353.58C977.369 353.623 974.827 354.538 972.941 356.132C971.055 357.726 969.973 359.875 969.921 362.128Z" fill="#3F3D56"/>
<path opacity="0.2" d="M619.819 610.864H622.96V489.997H696.229V487.349H622.96V436.349H679.543C678.713 435.457 677.859 434.577 676.982 433.708H622.96V400.023C621.921 399.649 620.874 399.288 619.819 398.948V433.708H558.251V390.549C557.196 390.59 556.157 390.651 555.111 390.726V433.708H505.993V401.507C504.938 401.902 503.899 402.317 502.869 402.753V433.708H461.579V436.349H502.869V487.349H461.579V489.997H502.869V610.864H505.993V489.997C512.444 489.996 518.831 491.069 524.791 493.154C530.751 495.24 536.166 498.298 540.727 502.153C545.289 506.008 548.906 510.584 551.374 515.621C553.842 520.658 555.112 526.057 555.111 531.509V610.864H558.251V489.997H619.819V610.864ZM505.993 487.349V436.349H555.111V487.349H505.993ZM558.251 487.349V436.349H559.484C567.407 436.349 575.254 437.669 582.574 440.232C589.895 442.795 596.546 446.552 602.149 451.288C607.752 456.024 612.196 461.646 615.228 467.833C618.259 474.021 619.82 480.652 619.819 487.349H558.251Z" fill="black"/>
<path d="M600.638 574.624C596.684 589.531 587.213 602.985 573.598 613.035C572.6 613.765 571.602 614.471 570.564 615.167C568.042 615.36 565.538 615.558 563.052 615.759C560.988 615.919 558.952 616.09 556.929 616.249L556.565 616.284L556.309 614.414L555.284 606.846C551.307 601.36 548.843 595.188 548.073 588.787C547.302 582.386 548.246 575.921 550.833 569.871C554.394 561.755 560.84 554.586 567.179 547.473C575.931 537.648 584.441 527.937 584.751 515.958C589.058 520.616 592.639 525.722 595.405 531.151C592.795 532.19 590.449 533.65 588.5 535.448C587.947 535.961 587.395 536.679 587.772 537.295C588.096 537.819 588.905 537.945 589.606 538.013C591.292 538.161 592.991 538.309 594.677 538.457C596.026 538.583 597.374 538.697 598.723 538.822C600.355 543.348 601.461 547.998 602.027 552.705C602.936 560.027 602.467 567.425 600.638 574.624Z" fill="#3F3D56"/>
<path d="M645.413 544.749C637.456 549.639 632.803 556.672 629.189 564.422C625.484 565.424 622.152 567.223 619.519 569.643C618.966 570.156 618.413 570.874 618.791 571.489C619.114 572.014 619.924 572.139 620.625 572.207C622.311 572.355 624.01 572.504 625.696 572.652C622.081 581.816 618.764 591.299 612.371 599.038C608.12 604.148 602.578 608.396 596.147 611.474C594.394 612.318 592.584 613.076 590.726 613.742C583.875 614.186 577.154 614.661 570.564 615.167C568.042 615.36 565.538 615.558 563.052 615.759C560.988 615.919 558.952 616.09 556.929 616.249C556.916 615.623 556.916 614.996 556.929 614.369C557.356 597.669 564.625 581.612 577.496 568.936C578.103 568.343 578.723 567.762 579.357 567.181C585.877 561.294 593.546 556.398 602.027 552.705C615.392 546.832 630.37 544.086 645.413 544.749Z" fill="#6C63FF"/>
<path d="M565.385 609.912L563.834 613.788L563.052 615.759C560.989 615.919 558.952 616.09 556.929 616.249L556.565 616.284C554.326 616.477 552.101 616.671 549.876 616.865C549.296 616.295 548.716 615.714 548.15 615.121C534.073 600.714 527.316 582.184 529.355 563.579C531.394 544.974 542.064 527.808 559.033 515.832C557.253 523.708 559.33 531.254 562.742 538.742C562.378 538.868 562.027 538.993 561.69 539.13C559.079 540.169 556.734 541.628 554.785 543.427C554.232 543.94 553.679 544.658 554.057 545.274C554.38 545.798 555.189 545.923 555.891 545.992C557.577 546.14 559.276 546.288 560.962 546.436C562.31 546.561 563.659 546.675 565.007 546.801C565.641 546.858 566.275 546.915 566.909 546.972C567.003 547.143 567.084 547.302 567.179 547.473C571.022 554.517 575.163 561.596 577.496 568.936C578.081 570.778 578.54 572.646 578.871 574.532C579.91 580.907 579.237 587.397 576.902 593.522C574.568 599.647 570.631 605.249 565.385 609.912Z" fill="#6C63FF"/>
<path d="M701.136 444.595C689.526 425.455 671.539 409.351 650.384 397.517C629.161 385.699 604.808 378.502 579.496 376.567C576.178 376.312 572.852 376.163 569.518 376.119C565.578 376.069 506.313 390.517 486.459 402.315C466.617 413.968 450.294 429.401 438.808 447.368C427.342 465.433 421.702 485.73 422.455 506.22C423.438 526.834 430.236 546.95 442.284 564.893C454.167 582.777 471.039 597.937 491.434 609.056C512.119 620.21 532.897 649.787 557.32 650.831C581.927 651.883 609.99 623.983 632.432 615.512C654.875 606.97 674.277 593.607 688.705 576.753C702.725 560.236 711.795 541.092 715.137 520.962C718.607 500.35 716.99 479.093 708.661 459.393C706.524 454.331 704.011 449.389 701.136 444.595C698.736 440.6 691.701 439.128 687.297 441.528C685.028 442.709 683.385 444.583 682.709 446.761C682.033 448.94 682.377 451.254 683.668 453.224C685.078 455.57 686.388 457.955 687.6 460.379L686.58 458.337C691.166 467.655 694.283 477.442 695.854 487.446L695.493 485.173C697.163 496.027 697.133 507.019 695.404 517.866L695.765 515.593C694.017 526.439 690.591 537.044 685.576 547.137L686.596 545.095C684.016 550.244 681.01 555.233 677.599 560.024C675.87 562.445 674.035 564.809 672.095 567.116C671.243 568.128 670.365 569.123 669.48 570.115C668.326 571.409 671.054 568.424 669.861 569.694C669.658 569.91 669.456 570.127 669.252 570.342C668.639 570.99 668.018 571.631 667.388 572.266C663.183 576.506 658.595 580.463 653.664 584.101C652.436 585.007 651.187 585.893 649.918 586.758C649.286 587.19 648.661 587.639 648.002 588.04C648.027 588.025 650.132 586.673 648.886 587.458C648.494 587.705 648.105 587.955 647.713 588.201C645.097 589.839 642.411 591.394 639.656 592.865C633.313 596.243 626.658 599.183 619.756 601.657L622.172 600.795C610.266 605.031 597.753 607.925 584.954 609.402L587.643 609.097C574.851 610.558 561.886 610.577 549.087 609.154L551.776 609.46C540.144 608.14 528.766 605.54 517.932 601.727L520.348 602.589C514.072 600.349 508.022 597.684 502.255 594.62C499.401 593.1 496.621 591.487 493.915 589.779C493.529 589.535 493.147 589.288 492.762 589.043C491.527 588.256 493.649 589.624 493.666 589.633C492.948 589.198 492.257 588.732 491.596 588.238C490.289 587.338 489.003 586.418 487.737 585.477C482.672 581.707 477.942 577.627 473.585 573.27C472.495 572.181 471.428 571.075 470.384 569.953C469.932 569.467 469.107 568.482 470.929 570.556C470.689 570.283 470.441 570.015 470.198 569.744C469.617 569.092 469.044 568.436 468.478 567.775C466.497 565.458 464.615 563.085 462.83 560.655C458.797 555.155 455.278 549.397 452.304 543.435L453.323 545.477C448.456 535.69 445.128 525.406 443.424 514.888L443.785 517.16C442.247 507.465 442.225 497.641 443.72 487.94L443.358 490.213C444.89 480.819 447.881 471.637 452.252 462.904L451.232 464.946C453.983 459.479 457.227 454.199 460.936 449.153C462.793 446.627 464.761 444.164 466.84 441.761C467.312 441.216 467.79 440.673 468.273 440.134C468.71 439.646 469.911 438.432 467.861 440.577C468.062 440.366 468.255 440.15 468.454 439.938C469.594 438.716 470.763 437.514 471.959 436.33C476.488 431.85 481.393 427.652 486.637 423.769C487.962 422.787 489.309 421.826 490.676 420.886C491.297 420.459 491.922 420.036 492.552 419.618C492.803 419.45 493.058 419.286 493.309 419.118C490.615 420.93 492.56 419.611 493.172 419.224C495.99 417.439 498.883 415.744 501.851 414.139C508.449 410.572 515.391 407.481 522.602 404.897L520.185 405.759C530.651 402.045 577.018 393.279 585.451 394.236L582.762 393.93C595.157 395.393 607.272 398.222 618.797 402.345L616.381 401.483C622.222 403.579 627.898 405.989 633.374 408.697C636.111 410.053 638.793 411.482 641.422 412.986C642.666 413.697 643.897 414.425 645.115 415.168C645.723 415.54 646.329 415.916 646.93 416.296C647.265 416.506 647.596 416.72 647.93 416.932C649.332 417.82 646 415.646 647.469 416.628C652.386 419.893 657.056 423.415 661.451 427.175C663.61 429.033 665.694 430.949 667.705 432.925C668.736 433.939 669.745 434.968 670.734 436.011C671.226 436.53 672.899 438.406 670.848 436.108C671.349 436.669 671.856 437.227 672.351 437.793C676.613 442.669 680.398 447.829 683.668 453.224C686.086 457.211 693.091 458.697 697.507 456.291C699.777 455.111 701.421 453.236 702.096 451.058C702.772 448.879 702.428 446.564 701.136 444.595Z" fill="#3F3D56"/>
<path d="M583.279 584.102C582.235 584.142 581.201 583.911 580.318 583.438C579.435 582.966 578.745 582.275 578.342 581.46C577.938 580.645 577.841 579.745 578.064 578.882C578.286 578.019 578.817 577.234 579.584 576.635C579.713 576.203 579.805 575.893 579.933 575.461C579.887 575.367 579.841 575.273 579.795 575.179C575.102 565.721 545.155 592.086 543.86 600.975C543.29 604.904 543.531 608.887 544.571 612.747C534.871 594.863 529.834 575.426 529.802 555.753C529.8 550.816 530.124 545.883 530.774 540.977C531.311 536.955 532.055 532.962 533.008 528.997C538.207 507.485 549.37 487.322 565.58 470.164C574.85 470.602 582.974 469.408 583.759 454.224C583.898 451.523 586.269 449.184 586.791 446.523C585.906 446.621 585.006 446.682 584.121 446.732C583.846 446.744 583.556 446.756 583.28 446.768L583.176 446.772C582.203 446.809 581.239 446.608 580.399 446.192C579.558 445.776 578.878 445.164 578.44 444.429C578.001 443.695 577.824 442.868 577.928 442.05C578.033 441.232 578.414 440.457 579.028 439.818C579.41 439.421 579.792 439.023 580.175 438.626C580.755 438.013 581.35 437.412 581.931 436.799C581.998 436.741 582.061 436.68 582.119 436.615C582.787 435.916 583.454 435.23 584.122 434.531C582.903 432.933 581.265 431.594 579.334 430.619C572.645 427.309 563.418 429.601 558.586 434.715C553.741 439.828 552.827 447.001 554.51 453.39C556.165 458.826 558.902 463.984 562.605 468.644C562.243 469.036 561.865 469.416 561.503 469.809C554.872 477.014 549.093 484.752 544.249 492.91C545.619 483.862 528.859 451.184 522.377 444.263C514.591 435.949 498.626 439.577 497.255 450.116C497.241 450.218 497.228 450.32 497.216 450.422C498.178 450.881 499.121 451.369 500.043 451.884C501.201 452.538 502.099 453.473 502.618 454.565C503.137 455.658 503.254 456.858 502.952 458.007C502.651 459.157 501.946 460.203 500.929 461.008C499.913 461.813 498.632 462.339 497.255 462.519L497.114 462.537C484.227 478.088 525.54 518.564 535.881 509.476C531.013 521.134 527.961 533.277 526.799 545.6C526.141 552.87 526.179 560.173 526.915 567.438L526.871 567.181C524.573 551.358 485.156 527.832 473.645 529.791C467.015 530.92 460.484 530.664 461.49 536.317C461.506 536.407 461.523 536.497 461.539 536.587C463.326 537.202 465.065 537.911 466.748 538.709C467.711 539.168 468.653 539.655 469.575 540.17C470.733 540.824 471.631 541.759 472.15 542.852C472.669 543.944 472.786 545.144 472.485 546.293C472.183 547.443 471.478 548.489 470.461 549.294C469.445 550.099 468.164 550.626 466.787 550.805L466.646 550.823C466.545 550.836 466.458 550.848 466.356 550.86C460.49 567.919 503.993 595.45 530.44 586.69H530.455C533.075 596.316 536.873 605.685 541.786 614.647H582.264C582.409 614.267 582.54 613.875 582.671 613.494C578.924 613.694 575.162 613.504 571.47 612.931C574.473 609.816 577.476 606.677 580.48 603.562C580.547 603.504 580.61 603.443 580.668 603.378C582.192 601.784 583.73 600.203 585.253 598.609L585.254 598.607C585.335 593.72 584.672 588.846 583.28 584.103L583.279 584.102ZM536.925 507.036L536.947 507.012L536.925 507.06V507.036ZM527.959 575.347L527.611 574.685C527.625 574.207 527.625 573.729 527.611 573.238C527.611 573.103 527.582 572.969 527.582 572.834C527.712 573.68 527.828 574.526 527.974 575.372L527.959 575.347Z" fill="#3F3D56"/>
<path d="M128.456 512.914C136.649 512.914 143.29 507.301 143.29 500.376C143.29 493.452 136.649 487.839 128.456 487.839C120.262 487.839 113.621 493.452 113.621 500.376C113.621 507.301 120.262 512.914 128.456 512.914Z" fill="#3F3D56"/>
<path d="M306.475 649.691C314.668 649.691 321.31 644.078 321.31 637.154C321.31 630.229 314.668 624.616 306.475 624.616C298.281 624.616 291.64 630.229 291.64 637.154C291.64 644.078 298.281 649.691 306.475 649.691Z" fill="#3F3D56"/>
<path d="M982.139 649.691C990.332 649.691 996.974 644.078 996.974 637.154C996.974 630.229 990.332 624.616 982.139 624.616C973.946 624.616 967.304 630.229 967.304 637.154C967.304 644.078 973.946 649.691 982.139 649.691Z" fill="#3F3D56"/>
<path d="M1018.55 490.118C1026.75 490.118 1033.39 484.505 1033.39 477.58C1033.39 470.656 1026.75 465.042 1018.55 465.042C1010.36 465.042 1003.72 470.656 1003.72 477.58C1003.72 484.505 1010.36 490.118 1018.55 490.118Z" fill="#3F3D56"/>
<path d="M975.396 373.858C983.589 373.858 990.231 368.244 990.231 361.32C990.231 354.395 983.589 348.782 975.396 348.782C967.203 348.782 960.561 354.395 960.561 361.32C960.561 368.244 967.203 373.858 975.396 373.858Z" fill="#3F3D56"/>
<path d="M356.374 477.58C356.365 480.783 354.9 483.86 352.281 486.175C349.663 488.49 346.091 489.865 342.306 490.017C338.521 490.168 334.812 489.084 331.946 486.988C329.08 484.893 327.278 481.946 326.911 478.759C326.544 475.571 327.642 472.386 329.976 469.863C332.31 467.34 335.703 465.673 339.452 465.205C343.201 464.737 347.019 465.506 350.116 467.351C353.213 469.196 355.352 471.977 356.091 475.118C356.281 475.929 356.376 476.754 356.374 477.58Z" fill="#3F3D56"/>
<path d="M653.073 410.331C661.266 410.331 667.908 404.718 667.908 397.794C667.908 390.869 661.266 385.256 653.073 385.256C644.88 385.256 638.238 390.869 638.238 397.794C638.238 404.718 644.88 410.331 653.073 410.331Z" fill="#3F3D56"/>
<path d="M506.072 397.794C506.064 400.996 504.598 404.073 501.979 406.388C499.361 408.703 495.789 410.079 492.004 410.23C488.219 410.381 484.51 409.297 481.644 407.202C478.779 405.106 476.976 402.16 476.609 398.972C476.243 395.784 477.34 392.599 479.674 390.077C482.009 387.554 485.401 385.886 489.15 385.418C492.899 384.951 496.717 385.719 499.814 387.564C502.911 389.409 505.051 392.19 505.789 395.332C505.979 396.142 506.074 396.967 506.072 397.794Z" fill="#3F3D56"/>
<path d="M314.567 361.32C314.558 364.522 313.092 367.599 310.474 369.914C307.855 372.229 304.283 373.605 300.498 373.756C296.713 373.908 293.004 372.823 290.138 370.728C287.273 368.632 285.47 365.686 285.104 362.498C284.737 359.31 285.834 356.126 288.168 353.603C290.503 351.08 293.895 349.412 297.644 348.944C301.393 348.477 305.211 349.245 308.308 351.09C311.405 352.935 313.545 355.716 314.283 358.858C314.474 359.668 314.568 360.493 314.567 361.32Z" fill="#3F3D56"/>
<path d="M808.166 517.474C816.359 517.474 823 511.86 823 504.936C823 498.011 816.359 492.398 808.166 492.398C799.972 492.398 793.331 498.011 793.331 504.936C793.331 511.86 799.972 517.474 808.166 517.474Z" fill="#3F3D56"/>
<path d="M574.853 403.493C586.77 403.493 596.431 395.328 596.431 385.256C596.431 375.184 586.77 367.019 574.853 367.019C562.935 367.019 553.274 375.184 553.274 385.256C553.274 395.328 562.935 403.493 574.853 403.493Z" fill="#3F3D56"/>
<path d="M1158.39 650.65L1.60578 651C1.3949 651 1.18609 650.965 0.991265 650.897C0.796442 650.828 0.619432 650.728 0.470321 650.602C0.32121 650.476 0.202914 650.327 0.122216 650.162C0.0415171 649.998 0 649.821 0 649.643C0 649.465 0.0415171 649.288 0.122216 649.123C0.202914 648.959 0.32121 648.809 0.470321 648.683C0.619432 648.557 0.796442 648.457 0.991265 648.389C1.18609 648.321 1.3949 648.286 1.60578 648.286L1158.39 647.935C1158.82 647.936 1159.23 648.08 1159.53 648.334C1159.83 648.589 1160 648.933 1160 649.293C1160 649.652 1159.83 649.996 1159.53 650.251C1159.23 650.505 1158.82 650.649 1158.39 650.65Z" fill="#CACACA"/>
</g>
<defs>
<clipPath id="clip0_166_99">
<rect width="1160" height="651" fill="white"/>
</clipPath>
</defs>
</svg>
